<svg xmlns="http://www.w3.org/2000/svg" data-name="Layer 1" viewBox="0 0 512 512"><rect width="465" height="286" x="39.5" y="57.5" fill="#1067ae" rx="30"/><path fill="#0a56a4" d="M474.5,57.5h-30a30,30,0,0,1,30,30v226a30,30,0,0,1-30,30h30a30,30,0,0,0,30-30V87.5A30,30,0,0,0,474.5,57.5Z"/><rect width="465" height="64" x="39.5" y="109.5" fill="#787681"/><rect width="30" height="64" x="474.5" y="109.5" fill="#57565c"/><rect width="465" height="286" x="7.5" y="153.5" fill="#227fc0" rx="30"/><path fill="#2370b5" d="M442.5,153.5h-30a30,30,0,0,1,30,30v226a30,30,0,0,1-30,30h30a30,30,0,0,0,30-30v-226A30,30,0,0,0,442.5,153.5Z"/><rect width="131" height="32" x="293.5" y="198.5" fill="#fff" rx="10"/><path fill="#e1e1e3" d="M414.5,198.5h-30a10,10,0,0,1,10,10v12a10,10,0,0,1-10,10h30a10,10,0,0,0,10-10v-12A10,10,0,0,0,414.5,198.5Z"/><rect width="70" height="51" x="55.5" y="198.5" fill="#f8be32" rx="10"/><path fill="#fed030" d="M115.5,198.5H94.13a10,10,0,0,1,10,10v31a10,10,0,0,1-10,10H115.5a10,10,0,0,0,10-10v-31A10,10,0,0,0,115.5,198.5Z"/><circle cx="402" cy="381" r="22.5" fill="#f9a242"/><path fill="#f69531" d="M402,358.5a22.46,22.46,0,0,0-7.5,1.29,22.5,22.5,0,0,1,0,42.42A22.5,22.5,0,1,0,402,358.5Z"/><circle cx="372" cy="381" r="22.5" fill="#f8be32"/><path fill="#fed030" d="M372,358.5a22.46,22.46,0,0,0-7.5,1.29,22.5,22.5,0,0,1,0,42.42A22.5,22.5,0,1,0,372,358.5Z"/><path fill="#3c3b41" d="M222.06,304.93h-65a7.5,7.5,0,0,0,0,15h65a7.5,7.5,0,0,0,0-15Zm-10,52H55.51a7.5,7.5,0,1,0,0,15H212.07a7.5,7.5,0,0,0,0-15Zm-91.23-52h-65a7.5,7.5,0,1,0,0,15h65a7.5,7.5,0,0,0,0-15Zm-55.34-48h50a17.52,17.52,0,0,0,17.5-17.5v-31a17.52,17.52,0,0,0-17.5-17.5h-50A17.52,17.52,0,0,0,48,208.43v31A17.52,17.52,0,0,0,65.5,256.93ZM63,208.43a2.5,2.5,0,0,1,2.5-2.5h50a2.51,2.51,0,0,1,2.5,2.5v31a2.51,2.51,0,0,1-2.5,2.5h-50a2.5,2.5,0,0,1-2.5-2.5Zm78.5,178.5H55.84a7.5,7.5,0,1,0,0,15H141.5a7.5,7.5,0,1,0,0-15Zm181.78-82h-65a7.5,7.5,0,1,0,0,15h65a7.5,7.5,0,0,0,0-15Zm91.22-114h-111a17.52,17.52,0,0,0-17.5,17.5v12a17.52,17.52,0,0,0,17.5,17.5h111a17.52,17.52,0,0,0,17.5-17.5v-12A17.52,17.52,0,0,0,414.5,190.93Zm2.5,29.5a2.51,2.51,0,0,1-2.5,2.5h-111a2.5,2.5,0,0,1-2.5-2.5v-12a2.5,2.5,0,0,1,2.5-2.5h111a2.51,2.51,0,0,1,2.5,2.5Zm57.5-170.5H69.5A37.54,37.54,0,0,0,32,87.43v58.91A37.55,37.55,0,0,0,0,183.43v226a37.54,37.54,0,0,0,37.5,37.5h405a37.55,37.55,0,0,0,37.5-37.5V350.52a37.55,37.55,0,0,0,32-37.09v-226A37.55,37.55,0,0,0,474.5,49.93ZM465,409.43a22.53,22.53,0,0,1-22.5,22.5H37.5A22.52,22.52,0,0,1,15,409.43v-226a22.52,22.52,0,0,1,22.5-22.5h405a22.53,22.53,0,0,1,22.5,22.5Zm32-96a22.55,22.55,0,0,1-17,21.82V183.43c0-.84,0-1.67-.1-2.5H497Zm0-147.5H475.65a37.53,37.53,0,0,0-33.15-20H47v-29H497Zm0-64H47V87.43a22.52,22.52,0,0,1,22.5-22.5h405A22.53,22.53,0,0,1,497,87.43Zm-72.5,203h-65a7.5,7.5,0,0,0,0,15h65a7.5,7.5,0,0,0,0-15Zm-22.51,46a30,30,0,0,0-15,4,30,30,0,1,0,0,51.94,30,30,0,1,0,15-56Zm-30,45a15,15,0,1,1,15-15A15,15,0,0,1,372,395.93Zm30,0a14.79,14.79,0,0,1-3.75-.49,29.88,29.88,0,0,0,0-29,14.79,14.79,0,0,1,3.75-.49,15,15,0,0,1,0,30Z"/></svg>