<svg xmlns="http://www.w3.org/2000/svg" data-name="Layer 1" viewBox="0 0 64 64"><rect width="40" height="22" x="30" y="30" fill="#fd3" transform="rotate(90 50 41)"/><path fill="#0ead69" d="M47,61c0-3.32-3.58-6-8-6v6Z"/><path fill="#0ead69" d="M47 61c0-3.32-3.58-6-8-6v6zM53 61c0-3.32 3.58-6 8-6v6z"/><path fill="#0ead69" d="M53 61c0-3.32 3.58-6 8-6v6zM53 21c0 3.32 3.58 6 8 6V21z"/><path fill="#0ead69" d="M53 21c0 3.32 3.58 6 8 6V21zM47 21c0 3.32-3.58 6-8 6V21z"/><rect width="20" height="40" x="3" y="3" fill="#a6b2cc" rx="5"/><rect width="20" height="28" x="3" y="9" fill="#5dc2e8"/><polygon fill="#e63946" points="10 53 13 47 16 53 10 53"/><polygon fill="#e63946" points="53 11 50 17 47 11 53 11"/><path d="M49 42v3c-1.08 0-2-.69-2-1.5H45A3.78 3.78 0 0 0 49 47v2h2V47a3.78 3.78 0 0 0 4-3.5A3.78 3.78 0 0 0 51 40V37c1.08 0 2 .69 2 1.5h2A3.78 3.78 0 0 0 51 35V33H49v2a3.78 3.78 0 0 0-4 3.5A3.78 3.78 0 0 0 49 42zm4 1.5c0 .81-.92 1.5-2 1.5V42C52.08 42 53 42.69 53 43.5zM49 37v3c-1.08 0-2-.69-2-1.5S47.92 37 49 37zM14 22V18a2 2 0 0 1 2 2h2a4 4 0 0 0-4-4V14H12v2a4 4 0 0 0 0 8v4a2 2 0 0 1-2-2H8a4 4 0 0 0 4 4v2h2V30a4 4 0 0 0 0-8zm-4-2a2 2 0 0 1 2-2v4A2 2 0 0 1 10 20zm4 8V24a2 2 0 0 1 0 4z"/><rect width="8" height="2" x="9" y="5"/><rect width="2" height="2" x="12" y="39"/><path d="M17 62H36V60H17a3 3 0 0 1-3-3V54h2a1 1 0 0 0 .89-1.45l-3-6a1 1 0 0 0-1.78 0l-3 6A1 1 0 0 0 10 54h2v3A5 5 0 0 0 17 62zM13 49.24L14.38 52H11.62zM49 7v3H47a1 1 0 0 0-.89 1.45l3 6a1 1 0 0 0 1.78 0l3-6A1 1 0 0 0 53 10H51V7a5 5 0 0 0-5-5H27V4H46A3 3 0 0 1 49 7zm1 7.76L48.62 12h2.76zM8 44H18a6 6 0 0 0 6-6V8a6 6 0 0 0-6-6H8A6 6 0 0 0 2 8V38A6 6 0 0 0 8 44zm10-2H8a4 4 0 0 1-4-4H22A4 4 0 0 1 18 42zM4 36V10H22V36zM8 4H18a4 4 0 0 1 4 4H4A4 4 0 0 1 8 4zM39 62H61a1 1 0 0 0 1-1V21a1 1 0 0 0-1-1H39a1 1 0 0 0-1 1V61A1 1 0 0 0 39 62zm1-5.94c2.93.3 5.27 1.89 5.86 3.94H40zM47.9 22h4.2c.58 3.13 3.83 5.6 7.9 5.95v26.1c-4.07.35-7.32 2.82-7.9 6H47.9c-.58-3.13-3.83-5.6-7.9-6V28C44.07 27.6 47.32 25.13 47.9 22zm6.24 38c.59-2 2.93-3.64 5.86-3.94V60zM60 25.94c-2.93-.3-5.27-1.89-5.86-3.94H60zM45.86 22c-.59 2.05-2.93 3.64-5.86 3.94V22z"/></svg>